<svg width="576" height="512" xmlns="http://www.w3.org/2000/svg">

 <g>
  <title>Layer 1</title>
  <path id="svg_1" d="m569.354,231.631c-56.384,-95.682 -161.544,-159.631 -281.354,-159.631c-119.86,0 -224.996,63.994 -281.354,159.631a47.999,47.999 0 0 0 0,48.739c56.385,95.681 161.544,159.63 281.354,159.63c119.86,0 224.996,-63.994 281.354,-159.631a47.997,47.997 0 0 0 0,-48.738zm-281.354,160.369c-102.556,0 -192.091,-54.701 -240,-136c44.157,-74.933 123.677,-127.27 216.162,-135.007c9.796,10.085 15.838,23.837 15.838,39.007c0,30.928 -25.072,56 -56,56s-56,-25.072 -56,-56l0.001,-0.042c-10.207,19.085 -16.001,40.886 -16.001,64.042c0,75.111 60.889,136 136,136s136,-60.889 136,-136c0,-31.031 -10.4,-59.629 -27.895,-82.515c55.599,23.153 101.904,63.621 131.895,114.515c-47.908,81.299 -137.444,136 -240,136z"/>
  <line stroke="#000" transform="translate(-31 8)" stroke-width="43" stroke-linecap="undefined" stroke-linejoin="undefined" id="svg_3" y2="460.5" x2="84" y1="28.77776" x1="546.29265" fill="none"/>
 </g>
</svg>